<svg width="15" height="16" viewBox="0 0 15 16" fill="none" xmlns="http://www.w3.org/2000/svg">
<path d="M7.5 0C6.43913 0 5.42172 0.421427 4.67157 1.17157C3.92143 1.92172 3.5 2.93913 3.5 4C3.5 5.06087 3.92143 6.07828 4.67157 6.82843C5.42172 7.57857 6.43913 8 7.5 8C8.56087 8 9.57828 7.57857 10.3284 6.82843C11.0786 6.07828 11.5 5.06087 11.5 4C11.5 2.93913 11.0786 1.92172 10.3284 1.17157C9.57828 0.421427 8.56087 0 7.5 0ZM4.5 4C4.5 3.20435 4.81607 2.44129 5.37868 1.87868C5.94129 1.31607 6.70435 1 7.5 1C8.29565 1 9.05871 1.31607 9.62132 1.87868C10.1839 2.44129 10.5 3.20435 10.5 4C10.5 4.79565 10.1839 5.55871 9.62132 6.12132C9.05871 6.68393 8.29565 7 7.5 7C6.70435 7 5.94129 6.68393 5.37868 6.12132C4.81607 5.55871 4.5 4.79565 4.5 4ZM2.509 9C2.24564 8.99895 1.98466 9.04989 1.74102 9.14992C1.49739 9.24994 1.2759 9.39708 1.08926 9.58289C0.902614 9.7687 0.754485 9.98952 0.653366 10.2327C0.552248 10.4759 0.50013 10.7366 0.5 11C0.5 12.691 1.333 13.966 2.635 14.797C3.917 15.614 5.645 16 7.5 16C9.355 16 11.083 15.614 12.365 14.797C13.667 13.967 14.5 12.69 14.5 11C14.5 10.4696 14.2893 9.96086 13.9142 9.58579C13.5391 9.21071 13.0304 9 12.5 9H2.509ZM1.5 11C1.5 10.447 1.948 10 2.509 10H12.5C12.7652 10 13.0196 10.1054 13.2071 10.2929C13.3946 10.4804 13.5 10.7348 13.5 11C13.5 12.309 12.878 13.284 11.827 13.953C10.757 14.636 9.235 15 7.5 15C5.765 15 4.243 14.636 3.173 13.953C2.123 13.283 1.5 12.31 1.5 11Z" fill="black"/>
</svg>