<svg width="18" height="18" viewBox="0 0 18 18" fill="none" xmlns="http://www.w3.org/2000/svg">
<path d="M12.2145 12.2145L16.5 16.5M7.63633 1.5C6.42268 1.5 5.23628 1.85989 4.22717 2.53416C3.21806 3.20843 2.43155 4.16679 1.9671 5.28806C1.50266 6.40932 1.38114 7.64314 1.61791 8.83347C1.85468 10.0238 2.43911 11.1172 3.29729 11.9754C4.15547 12.8335 5.24886 13.418 6.43919 13.6547C7.62952 13.8915 8.86334 13.77 9.9846 13.3056C11.1059 12.8411 12.0642 12.0546 12.7385 11.0455C13.4128 10.0364 13.7727 8.84998 13.7727 7.63633C13.7726 6.0089 13.126 4.44817 11.9753 3.2974C10.8245 2.14664 9.26375 1.5001 7.63633 1.5Z" stroke="black" stroke-width="1.25" stroke-miterlimit="10" stroke-linecap="round"/>
</svg>
